<?xml version="1.0" encoding="utf-8"?>
<!-- Generator: Adobe Illustrator 23.0.3, SVG Export Plug-In . SVG Version: 6.00 Build 0)  -->
<svg version="1.1" id="Layer_1" xmlns="http://www.w3.org/2000/svg" xmlns:xlink="http://www.w3.org/1999/xlink" x="0px" y="0px"
	 viewBox="0 0 234.4 139.9" style="enable-background:new 0 0 234.4 139.9;" xml:space="preserve">
<style type="text/css">
	.st0{fill:#FFFFFF;}
	.st1{fill:#68BD49;}
</style>
<g>
	<path class="st0" d="M58.6,99c-7.3,0-12.1,5.2-12.1,12v15.5c0,0,0,0.1,0,0.1c0,0.9,1.6,1.7,3.5,1.7c1.9,0,3.5-0.7,3.5-1.7v-15.8
		c0-3,2.2-5.1,5.2-5.1c4.6,0,5.1,3.6,5.1,5.1v15.7c0,0,0,0.1,0,0.1c0,0.9,1.6,1.7,3.5,1.7c1.9,0,3.5-0.7,3.5-1.7v-15.6
		C70.6,104,66.1,99,58.6,99z"/>
	<path class="st0" d="M105,99c-8.2,0-13.9,6.4-13.9,14.2c0,7.7,5.8,14,12.9,14c3.2,0,6.2-1.2,8.2-3.4v2.8h0c0,0.9,1.5,1.6,3.3,1.6
		c1.8,0,3.3-0.7,3.3-1.6v-13.5C118.9,105.4,113.2,99,105,99z M105,120.9c-3.8,0-6.9-3.3-6.9-7.6c0-4.4,3.1-7.7,6.9-7.7
		c3.8,0,6.9,3.5,6.9,7.7C112,117.5,108.9,120.9,105,120.9z"/>
	<path class="st0" d="M136.6,99c-7.3,0-12.1,5.2-12.1,12v15.5c0,0,0,0.1,0,0.1c0,0.9,1.6,1.7,3.5,1.7c1.9,0,3.5-0.7,3.5-1.7v-15.8
		c0-3,2.2-5.1,5.2-5.1c4.6,0,5.1,3.6,5.1,5.1v15.6c0,0,0,0.1,0,0.1c0,0.9,1.6,1.7,3.5,1.7c1.9,0,3.5-0.7,3.5-1.7v-15.6
		C148.6,104,144.1,99,136.6,99z"/>
	<path class="st0" d="M167,99c-8.2,0-13.9,6.4-13.9,14.2c0,7.7,5.8,14,12.9,14c3,0,5.8-1,7.8-3v1.2c0,4.8-2.2,8-7.1,8
		c-1.9,0-4.7-0.8-5.5-3c0-0.9-1.7-1.7-3.7-1.7c-2,0-3.7,0.7-3.7,1.7h-0.1c1,5.7,6.6,9.4,13.1,9.4c8.6,0,14-5.6,14-14.5v-12.1
		C180.8,105.4,175.1,99,167,99z M167,120.9c-3.8,0-6.9-3.3-6.9-7.6c0-4.4,3.1-7.7,6.9-7.7c3.8,0,6.9,3.5,6.9,7.7
		C173.9,117.5,170.8,120.9,167,120.9z"/>
	<path class="st0" d="M37.4,99.3c-1.9,0-3.5,0.7-3.5,1.7c0,0,0,0.1,0,0.1v15.7c0,3-2.2,5.1-5.2,5.1c-4.6,0-5.1-3.6-5.1-5.1V101
		c0,0,0-0.1,0-0.1c0-0.9-1.5-1.7-3.5-1.7s-3.5,0.7-3.5,1.7v15.5c0,7.1,4.4,12,12,12c7.3,0,12.1-5.2,12.1-12V101
		C40.8,100,39.3,99.3,37.4,99.3z"/>
	<path class="st0" d="M88.4,121.5c-0.1,0-0.1,0-0.2,0c-3.3,0.2-5-1.3-5-5v-9.5H88c0.8,0,1.5-1.4,1.5-3c0-1.7-0.7-3-1.5-3v0h-4.9
		v-6.9c0-0.9-1.6-1.7-3.5-1.7c-1.9,0-3.5,0.7-3.5,1.7c0,0,0,0.1,0,0.1v22.3c0,7.4,4.2,12.1,12.1,11.3v0c0,0,0,0,0,0
		c0.8,0,1.5-1.4,1.5-3.2C89.9,123,89.2,121.5,88.4,121.5z"/>
	<path class="st0" d="M197.8,121.6L197.8,121.6c-3.4,0.2-5.1-1.2-5.1-5V89c0-0.9-1.6-1.7-3.5-1.7c-1.9,0-3.5,0.7-3.5,1.7h0v27.6
		c0,7.4,4.2,12.1,12.1,11.3c0.8,0,1.4-1.4,1.4-3.1C199.2,123,198.6,121.6,197.8,121.6z"/>
	<path class="st0" d="M213.7,100.2c-7.6,0-13.9,6.4-13.9,14.2c0,7.8,6.3,14.1,13.9,14.1c5.9,0,10.3-2.9,12.3-7.3
		c0.1-0.1,0.1-0.2,0.2-0.3c0-0.1,0.1-0.1,0.1-0.2h-0.1c-0.1-0.9-1.8-1.6-4-1.6c-1.9,0-3.6,0.9-4.1,1.7c-1.2,1.1-2.8,1.6-4.5,1.6
		c-3.3,0-5.9-2-6.8-5.4h20.4C228.4,106.4,221.7,100.2,213.7,100.2z M207,111.4c1-3.2,3.5-5.2,6.7-5.2c3.3,0,5.9,2,6.8,5.2H207z"/>
	<g>
		<g>
			<path class="st1" d="M0.1,1.9C-0.3,3.5,0.3,5,1.9,5.5c15.4,4.8,15.6,28.7,16.3,47.4c0.3,7.1,0.5,13.7,1.5,18.7
				c1.5,7.3,4.7,10.9,9.7,10.9c7.1,0,8.7-10,11.9-34.6c1.3-9.8,3.3-25.2,5.6-30.9c2.5,5.7,4.5,22.2,5.7,31.6
				C55.6,72.5,57.2,83,64.5,83c6.9,0,8.8-9.9,11.7-24.9c1-5,2.6-13.3,4.2-17.7c1.2,3.5,2.5,9.4,3.4,13.8c3.1,14.4,5.9,28,14.9,28
				l0,0c5.8,0,8.3-6.7,10.8-13.9c1-2.9,3.2-8.7,4.7-10c1,0.8,2.5,4.5,3.4,6.8c2.8,6.8,6.5,16.2,16.7,16.2c2.8,0,6.9-0.4,12.6-0.9
				c15.3-1.4,40.8-3.6,69.1-0.9c2.3,0.2,3.9-1.1,4.1-2.5c0.2-1.2-1-2.9-3.3-3.1c-29.1-2.8-55.1-0.5-70.7,0.9
				c-5.3,0.5-9.4,0.9-11.9,0.9c-4.1,0-6.1-7.2-8.8-13.8c-2.3-5.8-5-12.3-11.5-12.3c-6.9,0-9.9,8.4-12.5,15.7
				c-0.8,2.3-2.1,5.9-3.2,7.6c-2.4-3.1-4.9-14.8-6.2-20.7c-2.8-13.2-4.8-22.7-11.7-22.7c-7.5,0-9.6,11.2-12.6,26.8
				c-0.8,4.2-2,10.1-3.1,14.2c-1.4-5.8-2.6-15.8-3.5-23.1C58,21.7,55.8,7,46.9,7c-8.3,0-10.5,13.6-13.9,39.8
				c-1.1,8.3-2.6,20-4.2,25.4c-1.3-4.1-1.7-13.6-1.9-19.7C26,31.9,24.9,3.8,3.5,0C2.2-0.2,0.5,0.6,0.1,1.9z"/>
		</g>
	</g>
	<g>
		<g>
			<path class="st0" d="M234.4,97.1c0,1.1-0.9,2-2,2c-1.1,0-2-0.9-2-2c0-1.1,0.9-2,2-2C233.6,95.1,234.4,96,234.4,97.1z M230.9,97.1
				c0,0.9,0.6,1.6,1.5,1.6c0.9,0,1.5-0.7,1.5-1.6c0-0.9-0.6-1.6-1.5-1.6C231.5,95.5,230.9,96.2,230.9,97.1z M232.1,98.1h-0.5v-2
				c0.2,0,0.4-0.1,0.8-0.1c0.4,0,0.5,0.1,0.7,0.1c0.1,0.1,0.2,0.2,0.2,0.4c0,0.2-0.2,0.4-0.4,0.5v0c0.2,0.1,0.3,0.2,0.4,0.5
				c0.1,0.3,0.1,0.4,0.1,0.5h-0.5c-0.1-0.1-0.1-0.3-0.2-0.5c0-0.2-0.2-0.3-0.4-0.3h-0.2V98.1z M232.1,97h0.2c0.3,0,0.5-0.1,0.5-0.3
				c0-0.2-0.1-0.3-0.4-0.3c-0.1,0-0.2,0-0.3,0V97z"/>
		</g>
	</g>
</g>
</svg>
